<mxfile host="app.diagrams.net" modified="2024-01-17T13:18:23.799Z" agent="Mozilla/5.0 (Windows NT 10.0; Win64; x64) AppleWebKit/537.36 (KHTML, like Gecko) Chrome/120.0.0.0 Safari/537.36" etag="scPKbyPWbvesSbpn-wD3" version="22.1.18" type="device" pages="2">
  <diagram name="Page-1" id="-clLf1eDEEkG6juFfl46">
    <mxGraphModel dx="2612" dy="1980" grid="1" gridSize="10" guides="1" tooltips="1" connect="1" arrows="1" fold="1" page="1" pageScale="1" pageWidth="850" pageHeight="1100" math="0" shadow="0">
      <root>
        <mxCell id="0" />
        <mxCell id="1" parent="0" />
        <mxCell id="Fi1VEAa8KatOQCvsPIws-4" style="edgeStyle=orthogonalEdgeStyle;rounded=0;orthogonalLoop=1;jettySize=auto;html=1;exitX=1;exitY=0.5;exitDx=0;exitDy=0;entryX=0;entryY=0.5;entryDx=0;entryDy=0;" parent="1" target="Fi1VEAa8KatOQCvsPIws-3" edge="1">
          <mxGeometry relative="1" as="geometry">
            <mxPoint x="260" y="150" as="sourcePoint" />
          </mxGeometry>
        </mxCell>
        <mxCell id="Fi1VEAa8KatOQCvsPIws-5" style="edgeStyle=orthogonalEdgeStyle;rounded=0;orthogonalLoop=1;jettySize=auto;html=1;" parent="1" source="Fi1VEAa8KatOQCvsPIws-3" edge="1">
          <mxGeometry relative="1" as="geometry">
            <mxPoint x="400" y="40" as="targetPoint" />
          </mxGeometry>
        </mxCell>
        <mxCell id="-OoPqi2KjpX0J7DmixHS-4" value="" style="edgeStyle=orthogonalEdgeStyle;rounded=0;orthogonalLoop=1;jettySize=auto;html=1;" parent="1" source="Fi1VEAa8KatOQCvsPIws-3" edge="1">
          <mxGeometry relative="1" as="geometry">
            <mxPoint x="519.9999999999998" y="150" as="targetPoint" />
          </mxGeometry>
        </mxCell>
        <mxCell id="Fi1VEAa8KatOQCvsPIws-3" value="&lt;font style=&quot;font-size: 21px;&quot;&gt;&lt;b&gt;Encrypt&lt;/b&gt;&lt;/font&gt;" style="shape=hexagon;perimeter=hexagonPerimeter2;whiteSpace=wrap;html=1;fixedSize=1;fillColor=#FF2B5D;" parent="1" vertex="1">
          <mxGeometry x="340" y="110" width="120" height="80" as="geometry" />
        </mxCell>
        <mxCell id="Fi1VEAa8KatOQCvsPIws-8" value="&lt;font style=&quot;font-size: 30px;&quot;&gt;&lt;b&gt;key&lt;/b&gt;&lt;/font&gt;" style="shape=note;whiteSpace=wrap;html=1;backgroundOutline=1;darkOpacity=0.05;fillColor=#AEFFA8;" parent="1" vertex="1">
          <mxGeometry x="360" y="-60" width="80" height="100" as="geometry" />
        </mxCell>
        <mxCell id="-OoPqi2KjpX0J7DmixHS-9" value="" style="edgeStyle=orthogonalEdgeStyle;rounded=0;orthogonalLoop=1;jettySize=auto;html=1;" parent="1" target="-OoPqi2KjpX0J7DmixHS-8" edge="1">
          <mxGeometry relative="1" as="geometry">
            <mxPoint x="287.5000000000002" y="465" as="sourcePoint" />
          </mxGeometry>
        </mxCell>
        <mxCell id="-OoPqi2KjpX0J7DmixHS-10" value="" style="edgeStyle=orthogonalEdgeStyle;rounded=0;orthogonalLoop=1;jettySize=auto;html=1;" parent="1" target="-OoPqi2KjpX0J7DmixHS-8" edge="1">
          <mxGeometry relative="1" as="geometry">
            <mxPoint x="407.4999999999998" y="380" as="sourcePoint" />
          </mxGeometry>
        </mxCell>
        <mxCell id="-OoPqi2KjpX0J7DmixHS-12" value="" style="edgeStyle=orthogonalEdgeStyle;rounded=0;orthogonalLoop=1;jettySize=auto;html=1;" parent="1" source="-OoPqi2KjpX0J7DmixHS-8" edge="1">
          <mxGeometry relative="1" as="geometry">
            <mxPoint x="512.4999999999998" y="465" as="targetPoint" />
          </mxGeometry>
        </mxCell>
        <mxCell id="-OoPqi2KjpX0J7DmixHS-8" value="&lt;b&gt;&lt;font style=&quot;font-size: 16px;&quot;&gt;Steganography&lt;/font&gt;&lt;/b&gt;" style="rounded=1;whiteSpace=wrap;html=1;fillColor=#dae8fc;strokeColor=#6c8ebf;" parent="1" vertex="1">
          <mxGeometry x="347.5" y="435" width="120" height="60" as="geometry" />
        </mxCell>
        <mxCell id="-OoPqi2KjpX0J7DmixHS-13" value="" style="shape=image;html=1;verticalAlign=top;verticalLabelPosition=bottom;labelBackgroundColor=#ffffff;imageAspect=0;aspect=fixed;image=https://cdn2.iconfinder.com/data/icons/boxicons-solid-vol-2/24/bxs-file-png-128.png" parent="1" vertex="1">
          <mxGeometry x="159.5" y="77" width="128" height="128" as="geometry" />
        </mxCell>
        <mxCell id="-OoPqi2KjpX0J7DmixHS-14" value="&lt;font style=&quot;font-size: 26px;&quot;&gt;&lt;b&gt;User Data&lt;/b&gt;&lt;/font&gt;" style="text;html=1;align=center;verticalAlign=middle;resizable=0;points=[];autosize=1;strokeColor=none;fillColor=none;" parent="1" vertex="1">
          <mxGeometry x="147.5" y="43" width="140" height="40" as="geometry" />
        </mxCell>
        <mxCell id="-OoPqi2KjpX0J7DmixHS-16" value="Encrypted&#xa;data" style="sketch=0;outlineConnect=0;fontColor=#232F3E;gradientColor=none;strokeColor=#232F3E;fillColor=#ffffff;dashed=0;verticalLabelPosition=bottom;verticalAlign=top;align=center;html=1;fontSize=12;fontStyle=0;aspect=fixed;shape=mxgraph.aws4.resourceIcon;resIcon=mxgraph.aws4.encrypted_data;" parent="1" vertex="1">
          <mxGeometry x="520" y="83" width="120" height="120" as="geometry" />
        </mxCell>
        <mxCell id="-OoPqi2KjpX0J7DmixHS-19" value="" style="shape=image;html=1;verticalAlign=top;verticalLabelPosition=bottom;labelBackgroundColor=#ffffff;imageAspect=0;aspect=fixed;image=https://cdn2.iconfinder.com/data/icons/boxicons-solid-vol-2/24/bxs-file-png-128.png" parent="1" vertex="1">
          <mxGeometry x="180" y="390" width="128" height="128" as="geometry" />
        </mxCell>
        <mxCell id="-OoPqi2KjpX0J7DmixHS-20" value="&lt;font style=&quot;font-size: 26px;&quot;&gt;&lt;b&gt;User Data&lt;/b&gt;&lt;/font&gt;" style="text;html=1;align=center;verticalAlign=middle;resizable=0;points=[];autosize=1;strokeColor=none;fillColor=none;" parent="1" vertex="1">
          <mxGeometry x="168" y="350" width="140" height="40" as="geometry" />
        </mxCell>
        <mxCell id="-OoPqi2KjpX0J7DmixHS-21" value="" style="sketch=0;aspect=fixed;pointerEvents=1;shadow=0;dashed=0;html=1;strokeColor=none;labelPosition=center;verticalLabelPosition=bottom;verticalAlign=top;align=center;fillColor=#00188D;shape=mxgraph.azure.code_file" parent="1" vertex="1">
          <mxGeometry x="369.9" y="280" width="75.2" height="80" as="geometry" />
        </mxCell>
        <mxCell id="-OoPqi2KjpX0J7DmixHS-22" value="" style="shape=image;html=1;verticalAlign=top;verticalLabelPosition=bottom;labelBackgroundColor=#ffffff;imageAspect=0;aspect=fixed;image=https://cdn2.iconfinder.com/data/icons/boxicons-solid-vol-2/24/bxs-file-png-128.png" parent="1" vertex="1">
          <mxGeometry x="496" y="390" width="128" height="128" as="geometry" />
        </mxCell>
        <mxCell id="-OoPqi2KjpX0J7DmixHS-23" value="&lt;font style=&quot;font-size: 26px;&quot;&gt;&lt;b&gt;User Data&lt;/b&gt;&lt;/font&gt;" style="text;html=1;align=center;verticalAlign=middle;resizable=0;points=[];autosize=1;strokeColor=none;fillColor=none;" parent="1" vertex="1">
          <mxGeometry x="484" y="350" width="140" height="40" as="geometry" />
        </mxCell>
        <mxCell id="-OoPqi2KjpX0J7DmixHS-24" value="&lt;span style=&quot;font-size: 25px;&quot;&gt;&lt;b&gt;Model&lt;br&gt;&lt;/b&gt;&lt;/span&gt;" style="text;html=1;align=center;verticalAlign=middle;resizable=0;points=[];autosize=1;strokeColor=none;fillColor=none;" parent="1" vertex="1">
          <mxGeometry x="1270" y="-70" width="100" height="40" as="geometry" />
        </mxCell>
        <mxCell id="-OoPqi2KjpX0J7DmixHS-27" value="&lt;font style=&quot;font-size: 26px;&quot;&gt;&lt;b&gt;User Data&lt;/b&gt;&lt;/font&gt;" style="text;html=1;align=center;verticalAlign=middle;resizable=0;points=[];autosize=1;strokeColor=none;fillColor=none;" parent="1" vertex="1">
          <mxGeometry x="905.9" y="60" width="140" height="40" as="geometry" />
        </mxCell>
        <mxCell id="B8PgsjI4pzTaqiPIlNJ4-8" style="edgeStyle=orthogonalEdgeStyle;rounded=0;orthogonalLoop=1;jettySize=auto;html=1;" parent="1" source="-OoPqi2KjpX0J7DmixHS-28" target="B8PgsjI4pzTaqiPIlNJ4-2" edge="1">
          <mxGeometry relative="1" as="geometry" />
        </mxCell>
        <mxCell id="-OoPqi2KjpX0J7DmixHS-28" value="&lt;b style=&quot;font-size: 15px;&quot;&gt;Encrypted&lt;br&gt;User Data&lt;br&gt;&lt;/b&gt;" style="sketch=0;outlineConnect=0;fontColor=#232F3E;gradientColor=none;strokeColor=#232F3E;fillColor=#ffffff;dashed=0;verticalLabelPosition=bottom;verticalAlign=top;align=center;html=1;fontSize=12;fontStyle=0;aspect=fixed;shape=mxgraph.aws4.resourceIcon;resIcon=mxgraph.aws4.encrypted_data;" parent="1" vertex="1">
          <mxGeometry x="1010" y="280" width="120" height="120" as="geometry" />
        </mxCell>
        <mxCell id="B8PgsjI4pzTaqiPIlNJ4-11" style="edgeStyle=orthogonalEdgeStyle;rounded=0;orthogonalLoop=1;jettySize=auto;html=1;" parent="1" source="-OoPqi2KjpX0J7DmixHS-30" target="B8PgsjI4pzTaqiPIlNJ4-10" edge="1">
          <mxGeometry relative="1" as="geometry" />
        </mxCell>
        <mxCell id="-OoPqi2KjpX0J7DmixHS-30" value="&lt;br&gt;&lt;b style=&quot;border-color: var(--border-color); color: rgb(0, 0, 0); font-family: Helvetica; font-size: 12px; font-style: normal; font-variant-ligatures: normal; font-variant-caps: normal; letter-spacing: normal; orphans: 2; text-align: center; text-indent: 0px; text-transform: none; widows: 2; word-spacing: 0px; -webkit-text-stroke-width: 0px; background-color: rgb(251, 251, 251); text-decoration-thickness: initial; text-decoration-style: initial; text-decoration-color: initial;&quot;&gt;&lt;font style=&quot;border-color: var(--border-color); font-size: 16px;&quot;&gt;Steganography&lt;/font&gt;&lt;/b&gt;" style="sketch=0;aspect=fixed;pointerEvents=1;shadow=0;dashed=0;html=1;strokeColor=none;labelPosition=center;verticalLabelPosition=bottom;verticalAlign=top;align=center;fillColor=#00188D;shape=mxgraph.azure.code_file" parent="1" vertex="1">
          <mxGeometry x="1330" y="170" width="75.2" height="80" as="geometry" />
        </mxCell>
        <mxCell id="B8PgsjI4pzTaqiPIlNJ4-9" style="edgeStyle=orthogonalEdgeStyle;rounded=0;orthogonalLoop=1;jettySize=auto;html=1;entryX=0.094;entryY=0.408;entryDx=0;entryDy=0;entryPerimeter=0;" parent="1" source="B8PgsjI4pzTaqiPIlNJ4-2" target="-OoPqi2KjpX0J7DmixHS-30" edge="1">
          <mxGeometry relative="1" as="geometry">
            <mxPoint x="1225.5" y="130" as="targetPoint" />
          </mxGeometry>
        </mxCell>
        <mxCell id="B8PgsjI4pzTaqiPIlNJ4-2" value="&lt;span style=&quot;font-size: 18px;&quot;&gt;&lt;b&gt;Key&lt;/b&gt;&lt;/span&gt;" style="sketch=0;outlineConnect=0;fontColor=#232F3E;gradientColor=none;fillColor=#DD344C;strokeColor=none;dashed=0;verticalLabelPosition=bottom;verticalAlign=top;align=center;html=1;fontSize=12;fontStyle=0;aspect=fixed;pointerEvents=1;shape=mxgraph.aws4.key_management_service_external_key_store;" parent="1" vertex="1">
          <mxGeometry x="1180" y="230" width="91" height="91" as="geometry" />
        </mxCell>
        <mxCell id="m_yjS75Oey8v7s3om1p4-1" style="edgeStyle=orthogonalEdgeStyle;rounded=0;orthogonalLoop=1;jettySize=auto;html=1;" parent="1" source="B8PgsjI4pzTaqiPIlNJ4-10" target="B8PgsjI4pzTaqiPIlNJ4-12" edge="1">
          <mxGeometry relative="1" as="geometry" />
        </mxCell>
        <mxCell id="B8PgsjI4pzTaqiPIlNJ4-10" value="&lt;b&gt;&lt;font style=&quot;font-size: 17px;&quot;&gt;Music FIle&lt;/font&gt;&lt;/b&gt;" style="sketch=0;pointerEvents=1;shadow=0;dashed=0;html=1;strokeColor=none;fillColor=#005F4B;labelPosition=center;verticalLabelPosition=bottom;verticalAlign=top;align=center;outlineConnect=0;shape=mxgraph.veeam2.audio_file;" parent="1" vertex="1">
          <mxGeometry x="1470" y="77" width="71.79" height="100" as="geometry" />
        </mxCell>
        <mxCell id="m_yjS75Oey8v7s3om1p4-3" style="edgeStyle=orthogonalEdgeStyle;rounded=0;orthogonalLoop=1;jettySize=auto;html=1;" parent="1" source="B8PgsjI4pzTaqiPIlNJ4-12" target="m_yjS75Oey8v7s3om1p4-2" edge="1">
          <mxGeometry relative="1" as="geometry" />
        </mxCell>
        <mxCell id="B8PgsjI4pzTaqiPIlNJ4-12" value="&lt;b&gt;&lt;font style=&quot;font-size: 14px;&quot;&gt;Google Drive API&lt;/font&gt;&lt;/b&gt;" style="image;sketch=0;aspect=fixed;html=1;points=[];align=center;fontSize=12;image=img/lib/mscae/API_Management.svg;" parent="1" vertex="1">
          <mxGeometry x="1611" y="11" width="89.29" height="75" as="geometry" />
        </mxCell>
        <mxCell id="m_yjS75Oey8v7s3om1p4-2" value="&lt;b&gt;&lt;font style=&quot;font-size: 15px;&quot;&gt;Google&lt;/font&gt;&lt;font size=&quot;1&quot; style=&quot;&quot;&gt; &lt;/font&gt;&lt;font style=&quot;font-size: 15px;&quot;&gt;Drive&lt;/font&gt;&lt;/b&gt;" style="dashed=0;outlineConnect=0;html=1;align=center;labelPosition=center;verticalLabelPosition=bottom;verticalAlign=top;shape=mxgraph.weblogos.google_drive" parent="1" vertex="1">
          <mxGeometry x="1710" y="136" width="89.3" height="78" as="geometry" />
        </mxCell>
        <mxCell id="u2ZIEMa_aCcwXYJDqzPm-2" style="edgeStyle=orthogonalEdgeStyle;rounded=0;orthogonalLoop=1;jettySize=auto;html=1;" parent="1" source="u2ZIEMa_aCcwXYJDqzPm-1" target="-OoPqi2KjpX0J7DmixHS-28" edge="1">
          <mxGeometry relative="1" as="geometry" />
        </mxCell>
        <mxCell id="u2ZIEMa_aCcwXYJDqzPm-1" value="" style="sketch=0;pointerEvents=1;shadow=0;dashed=0;html=1;strokeColor=#666666;fillColor=#F5DC36;labelPosition=center;verticalLabelPosition=bottom;verticalAlign=top;outlineConnect=0;align=center;shape=mxgraph.office.concepts.folder_open;fontColor=#333333;" parent="1" vertex="1">
          <mxGeometry x="930" y="119.5" width="91.81" height="70.5" as="geometry" />
        </mxCell>
        <mxCell id="R-Ji7351PkL93z1LYaUc-1" value="&lt;span style=&quot;font-size: 25px;&quot;&gt;&lt;b&gt;V1&lt;br&gt;&lt;/b&gt;&lt;/span&gt;" style="text;html=1;align=center;verticalAlign=middle;resizable=0;points=[];autosize=1;strokeColor=#b85450;fillColor=#f8cecc;" parent="1" vertex="1">
          <mxGeometry x="1289.1" y="610" width="50" height="40" as="geometry" />
        </mxCell>
        <mxCell id="R-Ji7351PkL93z1LYaUc-2" value="&lt;span style=&quot;font-size: 26px;&quot;&gt;&lt;b&gt;One By One Folder&lt;/b&gt;&lt;/span&gt;" style="text;html=1;align=center;verticalAlign=middle;resizable=0;points=[];autosize=1;strokeColor=none;fillColor=none;" parent="1" vertex="1">
          <mxGeometry x="840" y="740" width="260" height="40" as="geometry" />
        </mxCell>
        <mxCell id="R-Ji7351PkL93z1LYaUc-3" style="edgeStyle=orthogonalEdgeStyle;rounded=0;orthogonalLoop=1;jettySize=auto;html=1;" parent="1" source="R-Ji7351PkL93z1LYaUc-4" target="R-Ji7351PkL93z1LYaUc-8" edge="1">
          <mxGeometry relative="1" as="geometry" />
        </mxCell>
        <mxCell id="R-Ji7351PkL93z1LYaUc-4" value="&lt;b style=&quot;font-size: 15px;&quot;&gt;Encrypted&lt;br&gt;User Data&lt;br&gt;&lt;/b&gt;" style="sketch=0;outlineConnect=0;fontColor=#232F3E;gradientColor=none;strokeColor=#232F3E;fillColor=#ffffff;dashed=0;verticalLabelPosition=bottom;verticalAlign=top;align=center;html=1;fontSize=12;fontStyle=0;aspect=fixed;shape=mxgraph.aws4.resourceIcon;resIcon=mxgraph.aws4.encrypted_data;" parent="1" vertex="1">
          <mxGeometry x="1004.1" y="960" width="120" height="120" as="geometry" />
        </mxCell>
        <mxCell id="R-Ji7351PkL93z1LYaUc-20" style="edgeStyle=orthogonalEdgeStyle;rounded=0;orthogonalLoop=1;jettySize=auto;html=1;" parent="1" source="R-Ji7351PkL93z1LYaUc-6" target="R-Ji7351PkL93z1LYaUc-18" edge="1">
          <mxGeometry relative="1" as="geometry" />
        </mxCell>
        <mxCell id="R-Ji7351PkL93z1LYaUc-6" value="&lt;br&gt;&lt;b style=&quot;border-color: var(--border-color); color: rgb(0, 0, 0); font-family: Helvetica; font-size: 12px; font-style: normal; font-variant-ligatures: normal; font-variant-caps: normal; letter-spacing: normal; orphans: 2; text-align: center; text-indent: 0px; text-transform: none; widows: 2; word-spacing: 0px; -webkit-text-stroke-width: 0px; background-color: rgb(251, 251, 251); text-decoration-thickness: initial; text-decoration-style: initial; text-decoration-color: initial;&quot;&gt;&lt;font style=&quot;border-color: var(--border-color); font-size: 16px;&quot;&gt;Steganography&lt;/font&gt;&lt;/b&gt;" style="sketch=0;aspect=fixed;pointerEvents=1;shadow=0;dashed=0;html=1;strokeColor=none;labelPosition=center;verticalLabelPosition=bottom;verticalAlign=top;align=center;fillColor=#00188D;shape=mxgraph.azure.code_file" parent="1" vertex="1">
          <mxGeometry x="1324.1" y="850" width="75.2" height="80" as="geometry" />
        </mxCell>
        <mxCell id="R-Ji7351PkL93z1LYaUc-7" style="edgeStyle=orthogonalEdgeStyle;rounded=0;orthogonalLoop=1;jettySize=auto;html=1;entryX=0.094;entryY=0.408;entryDx=0;entryDy=0;entryPerimeter=0;" parent="1" source="R-Ji7351PkL93z1LYaUc-8" target="R-Ji7351PkL93z1LYaUc-6" edge="1">
          <mxGeometry relative="1" as="geometry">
            <mxPoint x="1219.6" y="810" as="targetPoint" />
          </mxGeometry>
        </mxCell>
        <mxCell id="R-Ji7351PkL93z1LYaUc-8" value="&lt;span style=&quot;font-size: 18px;&quot;&gt;&lt;b&gt;Key&lt;/b&gt;&lt;/span&gt;" style="sketch=0;outlineConnect=0;fontColor=#232F3E;gradientColor=none;fillColor=#DD344C;strokeColor=none;dashed=0;verticalLabelPosition=bottom;verticalAlign=top;align=center;html=1;fontSize=12;fontStyle=0;aspect=fixed;pointerEvents=1;shape=mxgraph.aws4.key_management_service_external_key_store;" parent="1" vertex="1">
          <mxGeometry x="1174.1" y="910" width="91" height="91" as="geometry" />
        </mxCell>
        <mxCell id="R-Ji7351PkL93z1LYaUc-11" style="edgeStyle=orthogonalEdgeStyle;rounded=0;orthogonalLoop=1;jettySize=auto;html=1;" parent="1" source="R-Ji7351PkL93z1LYaUc-12" target="R-Ji7351PkL93z1LYaUc-13" edge="1">
          <mxGeometry relative="1" as="geometry" />
        </mxCell>
        <mxCell id="R-Ji7351PkL93z1LYaUc-12" value="&lt;b&gt;&lt;font style=&quot;font-size: 14px;&quot;&gt;Google Drive API&lt;/font&gt;&lt;/b&gt;" style="image;sketch=0;aspect=fixed;html=1;points=[];align=center;fontSize=12;image=img/lib/mscae/API_Management.svg;" parent="1" vertex="1">
          <mxGeometry x="1605.1" y="691" width="89.29" height="75" as="geometry" />
        </mxCell>
        <mxCell id="R-Ji7351PkL93z1LYaUc-13" value="&lt;b&gt;&lt;font style=&quot;font-size: 15px;&quot;&gt;Google&lt;/font&gt;&lt;font size=&quot;1&quot; style=&quot;&quot;&gt; &lt;/font&gt;&lt;font style=&quot;font-size: 15px;&quot;&gt;Drive&lt;/font&gt;&lt;/b&gt;" style="dashed=0;outlineConnect=0;html=1;align=center;labelPosition=center;verticalLabelPosition=bottom;verticalAlign=top;shape=mxgraph.weblogos.google_drive" parent="1" vertex="1">
          <mxGeometry x="1704.1" y="816" width="89.3" height="78" as="geometry" />
        </mxCell>
        <mxCell id="R-Ji7351PkL93z1LYaUc-14" style="edgeStyle=orthogonalEdgeStyle;rounded=0;orthogonalLoop=1;jettySize=auto;html=1;" parent="1" source="R-Ji7351PkL93z1LYaUc-15" target="R-Ji7351PkL93z1LYaUc-4" edge="1">
          <mxGeometry relative="1" as="geometry" />
        </mxCell>
        <mxCell id="R-Ji7351PkL93z1LYaUc-15" value="" style="sketch=0;pointerEvents=1;shadow=0;dashed=0;html=1;strokeColor=#666666;fillColor=#F5DC36;labelPosition=center;verticalLabelPosition=bottom;verticalAlign=top;outlineConnect=0;align=center;shape=mxgraph.office.concepts.folder_open;fontColor=#333333;" parent="1" vertex="1">
          <mxGeometry x="924.1" y="799.5" width="91.81" height="70.5" as="geometry" />
        </mxCell>
        <mxCell id="R-Ji7351PkL93z1LYaUc-17" style="edgeStyle=orthogonalEdgeStyle;rounded=0;orthogonalLoop=1;jettySize=auto;html=1;" parent="1" source="R-Ji7351PkL93z1LYaUc-16" target="R-Ji7351PkL93z1LYaUc-15" edge="1">
          <mxGeometry relative="1" as="geometry" />
        </mxCell>
        <mxCell id="R-Ji7351PkL93z1LYaUc-16" value="&lt;b&gt;&lt;font style=&quot;font-size: 23px;&quot;&gt;Drive&lt;/font&gt;&lt;/b&gt;" style="sketch=0;pointerEvents=1;shadow=0;dashed=0;html=1;strokeColor=none;fillColor=#505050;labelPosition=center;verticalLabelPosition=bottom;verticalAlign=top;outlineConnect=0;align=center;shape=mxgraph.office.devices.hard_disk;" parent="1" vertex="1">
          <mxGeometry x="660" y="850" width="77.04" height="104" as="geometry" />
        </mxCell>
        <mxCell id="R-Ji7351PkL93z1LYaUc-21" style="edgeStyle=orthogonalEdgeStyle;rounded=0;orthogonalLoop=1;jettySize=auto;html=1;" parent="1" source="R-Ji7351PkL93z1LYaUc-18" target="R-Ji7351PkL93z1LYaUc-12" edge="1">
          <mxGeometry relative="1" as="geometry" />
        </mxCell>
        <mxCell id="R-Ji7351PkL93z1LYaUc-18" value="&lt;b&gt;&lt;font style=&quot;font-size: 19px;&quot;&gt;Image FIle&lt;/font&gt;&lt;/b&gt;" style="sketch=0;outlineConnect=0;fontColor=#232F3E;gradientColor=none;fillColor=#ED7100;strokeColor=none;dashed=0;verticalLabelPosition=bottom;verticalAlign=top;align=center;html=1;fontSize=12;fontStyle=0;aspect=fixed;pointerEvents=1;shape=mxgraph.aws4.container_registry_image;" parent="1" vertex="1">
          <mxGeometry x="1450" y="764.5" width="85.5" height="85.5" as="geometry" />
        </mxCell>
        <mxCell id="R-Ji7351PkL93z1LYaUc-24" value="&lt;span style=&quot;font-size: 25px;&quot;&gt;&lt;b&gt;V2&lt;br&gt;&lt;/b&gt;&lt;/span&gt;" style="text;html=1;align=center;verticalAlign=middle;resizable=0;points=[];autosize=1;strokeColor=#b85450;fillColor=#f8cecc;" parent="1" vertex="1">
          <mxGeometry x="1341.6" y="1310" width="50" height="40" as="geometry" />
        </mxCell>
        <mxCell id="R-Ji7351PkL93z1LYaUc-25" value="&lt;span style=&quot;font-size: 26px;&quot;&gt;&lt;b&gt;One By One Folder&lt;/b&gt;&lt;/span&gt;" style="text;html=1;align=center;verticalAlign=middle;resizable=0;points=[];autosize=1;strokeColor=none;fillColor=none;" parent="1" vertex="1">
          <mxGeometry x="892.5" y="1440" width="260" height="40" as="geometry" />
        </mxCell>
        <mxCell id="R-Ji7351PkL93z1LYaUc-26" style="edgeStyle=orthogonalEdgeStyle;rounded=0;orthogonalLoop=1;jettySize=auto;html=1;" parent="1" source="R-Ji7351PkL93z1LYaUc-27" target="R-Ji7351PkL93z1LYaUc-31" edge="1">
          <mxGeometry relative="1" as="geometry" />
        </mxCell>
        <mxCell id="R-Ji7351PkL93z1LYaUc-27" value="&lt;b style=&quot;font-size: 15px;&quot;&gt;Encrypted&lt;br&gt;User Data&lt;br&gt;&lt;/b&gt;" style="sketch=0;outlineConnect=0;fontColor=#232F3E;gradientColor=none;strokeColor=#232F3E;fillColor=#ffffff;dashed=0;verticalLabelPosition=bottom;verticalAlign=top;align=center;html=1;fontSize=12;fontStyle=0;aspect=fixed;shape=mxgraph.aws4.resourceIcon;resIcon=mxgraph.aws4.encrypted_data;" parent="1" vertex="1">
          <mxGeometry x="1056.6000000000001" y="1660" width="120" height="120" as="geometry" />
        </mxCell>
        <mxCell id="R-Ji7351PkL93z1LYaUc-28" style="edgeStyle=orthogonalEdgeStyle;rounded=0;orthogonalLoop=1;jettySize=auto;html=1;" parent="1" source="R-Ji7351PkL93z1LYaUc-29" target="R-Ji7351PkL93z1LYaUc-40" edge="1">
          <mxGeometry relative="1" as="geometry" />
        </mxCell>
        <mxCell id="R-Ji7351PkL93z1LYaUc-29" value="&lt;br&gt;&lt;b style=&quot;border-color: var(--border-color); color: rgb(0, 0, 0); font-family: Helvetica; font-size: 12px; font-style: normal; font-variant-ligatures: normal; font-variant-caps: normal; letter-spacing: normal; orphans: 2; text-align: center; text-indent: 0px; text-transform: none; widows: 2; word-spacing: 0px; -webkit-text-stroke-width: 0px; background-color: rgb(251, 251, 251); text-decoration-thickness: initial; text-decoration-style: initial; text-decoration-color: initial;&quot;&gt;&lt;font style=&quot;border-color: var(--border-color); font-size: 16px;&quot;&gt;Steganography&lt;/font&gt;&lt;/b&gt;" style="sketch=0;aspect=fixed;pointerEvents=1;shadow=0;dashed=0;html=1;strokeColor=none;labelPosition=center;verticalLabelPosition=bottom;verticalAlign=top;align=center;fillColor=#00188D;shape=mxgraph.azure.code_file" parent="1" vertex="1">
          <mxGeometry x="1376.6" y="1550" width="75.2" height="80" as="geometry" />
        </mxCell>
        <mxCell id="R-Ji7351PkL93z1LYaUc-30" style="edgeStyle=orthogonalEdgeStyle;rounded=0;orthogonalLoop=1;jettySize=auto;html=1;entryX=0.094;entryY=0.408;entryDx=0;entryDy=0;entryPerimeter=0;" parent="1" source="R-Ji7351PkL93z1LYaUc-31" target="R-Ji7351PkL93z1LYaUc-29" edge="1">
          <mxGeometry relative="1" as="geometry">
            <mxPoint x="1272.1" y="1510" as="targetPoint" />
          </mxGeometry>
        </mxCell>
        <mxCell id="R-Ji7351PkL93z1LYaUc-31" value="&lt;span style=&quot;font-size: 18px;&quot;&gt;&lt;b&gt;Key&lt;/b&gt;&lt;/span&gt;" style="sketch=0;outlineConnect=0;fontColor=#232F3E;gradientColor=none;fillColor=#DD344C;strokeColor=none;dashed=0;verticalLabelPosition=bottom;verticalAlign=top;align=center;html=1;fontSize=12;fontStyle=0;aspect=fixed;pointerEvents=1;shape=mxgraph.aws4.key_management_service_external_key_store;" parent="1" vertex="1">
          <mxGeometry x="1226.6" y="1610" width="91" height="91" as="geometry" />
        </mxCell>
        <mxCell id="R-Ji7351PkL93z1LYaUc-32" style="edgeStyle=orthogonalEdgeStyle;rounded=0;orthogonalLoop=1;jettySize=auto;html=1;" parent="1" source="R-Ji7351PkL93z1LYaUc-33" target="R-Ji7351PkL93z1LYaUc-34" edge="1">
          <mxGeometry relative="1" as="geometry" />
        </mxCell>
        <mxCell id="R-Ji7351PkL93z1LYaUc-33" value="&lt;b&gt;&lt;font style=&quot;font-size: 14px;&quot;&gt;Google Drive API&lt;/font&gt;&lt;/b&gt;" style="image;sketch=0;aspect=fixed;html=1;points=[];align=center;fontSize=12;image=img/lib/mscae/API_Management.svg;" parent="1" vertex="1">
          <mxGeometry x="1657.6" y="1391" width="89.29" height="75" as="geometry" />
        </mxCell>
        <mxCell id="R-Ji7351PkL93z1LYaUc-34" value="&lt;b&gt;&lt;font style=&quot;font-size: 15px;&quot;&gt;Google&lt;/font&gt;&lt;font size=&quot;1&quot; style=&quot;&quot;&gt; &lt;/font&gt;&lt;font style=&quot;font-size: 15px;&quot;&gt;Drive&lt;/font&gt;&lt;/b&gt;" style="dashed=0;outlineConnect=0;html=1;align=center;labelPosition=center;verticalLabelPosition=bottom;verticalAlign=top;shape=mxgraph.weblogos.google_drive" parent="1" vertex="1">
          <mxGeometry x="1756.6" y="1516" width="89.3" height="78" as="geometry" />
        </mxCell>
        <mxCell id="R-Ji7351PkL93z1LYaUc-35" style="edgeStyle=orthogonalEdgeStyle;rounded=0;orthogonalLoop=1;jettySize=auto;html=1;" parent="1" source="R-Ji7351PkL93z1LYaUc-36" target="R-Ji7351PkL93z1LYaUc-27" edge="1">
          <mxGeometry relative="1" as="geometry" />
        </mxCell>
        <mxCell id="R-Ji7351PkL93z1LYaUc-36" value="" style="sketch=0;pointerEvents=1;shadow=0;dashed=0;html=1;strokeColor=#666666;fillColor=#F5DC36;labelPosition=center;verticalLabelPosition=bottom;verticalAlign=top;outlineConnect=0;align=center;shape=mxgraph.office.concepts.folder_open;fontColor=#333333;" parent="1" vertex="1">
          <mxGeometry x="976.6000000000001" y="1499.5" width="91.81" height="70.5" as="geometry" />
        </mxCell>
        <mxCell id="R-Ji7351PkL93z1LYaUc-37" style="edgeStyle=orthogonalEdgeStyle;rounded=0;orthogonalLoop=1;jettySize=auto;html=1;" parent="1" source="R-Ji7351PkL93z1LYaUc-38" target="R-Ji7351PkL93z1LYaUc-36" edge="1">
          <mxGeometry relative="1" as="geometry" />
        </mxCell>
        <mxCell id="R-Ji7351PkL93z1LYaUc-38" value="&lt;b&gt;&lt;font style=&quot;font-size: 23px;&quot;&gt;Drive&lt;/font&gt;&lt;/b&gt;" style="sketch=0;pointerEvents=1;shadow=0;dashed=0;html=1;strokeColor=none;fillColor=#505050;labelPosition=center;verticalLabelPosition=bottom;verticalAlign=top;outlineConnect=0;align=center;shape=mxgraph.office.devices.hard_disk;" parent="1" vertex="1">
          <mxGeometry x="712.5" y="1550" width="77.04" height="104" as="geometry" />
        </mxCell>
        <mxCell id="R-Ji7351PkL93z1LYaUc-39" style="edgeStyle=orthogonalEdgeStyle;rounded=0;orthogonalLoop=1;jettySize=auto;html=1;" parent="1" source="R-Ji7351PkL93z1LYaUc-40" target="R-Ji7351PkL93z1LYaUc-33" edge="1">
          <mxGeometry relative="1" as="geometry" />
        </mxCell>
        <mxCell id="R-Ji7351PkL93z1LYaUc-40" value="&lt;b&gt;&lt;font style=&quot;font-size: 19px;&quot;&gt;Image FIle&lt;/font&gt;&lt;/b&gt;" style="sketch=0;outlineConnect=0;fontColor=#232F3E;gradientColor=none;fillColor=#ED7100;strokeColor=none;dashed=0;verticalLabelPosition=bottom;verticalAlign=top;align=center;html=1;fontSize=12;fontStyle=0;aspect=fixed;pointerEvents=1;shape=mxgraph.aws4.container_registry_image;" parent="1" vertex="1">
          <mxGeometry x="1502.5" y="1464.5" width="85.5" height="85.5" as="geometry" />
        </mxCell>
        <mxCell id="R-Ji7351PkL93z1LYaUc-59" style="edgeStyle=orthogonalEdgeStyle;rounded=0;orthogonalLoop=1;jettySize=auto;html=1;" parent="1" source="R-Ji7351PkL93z1LYaUc-42" target="R-Ji7351PkL93z1LYaUc-53" edge="1">
          <mxGeometry relative="1" as="geometry" />
        </mxCell>
        <mxCell id="R-Ji7351PkL93z1LYaUc-60" style="edgeStyle=orthogonalEdgeStyle;rounded=0;orthogonalLoop=1;jettySize=auto;html=1;" parent="1" source="R-Ji7351PkL93z1LYaUc-42" target="R-Ji7351PkL93z1LYaUc-55" edge="1">
          <mxGeometry relative="1" as="geometry" />
        </mxCell>
        <mxCell id="R-Ji7351PkL93z1LYaUc-42" value="&lt;b&gt;&lt;font style=&quot;font-size: 16px;&quot;&gt;Automatically Ask For Run As Adminstrator&lt;br&gt;&lt;br&gt;&lt;/font&gt;&lt;/b&gt;" style="text;html=1;align=center;verticalAlign=middle;resizable=0;points=[];autosize=1;strokeColor=none;fillColor=none;" parent="1" vertex="1">
          <mxGeometry x="147.5" y="1499.5" width="360" height="50" as="geometry" />
        </mxCell>
        <mxCell id="R-Ji7351PkL93z1LYaUc-44" style="edgeStyle=orthogonalEdgeStyle;rounded=0;orthogonalLoop=1;jettySize=auto;html=1;" parent="1" source="R-Ji7351PkL93z1LYaUc-43" target="R-Ji7351PkL93z1LYaUc-38" edge="1">
          <mxGeometry relative="1" as="geometry" />
        </mxCell>
        <mxCell id="R-Ji7351PkL93z1LYaUc-43" value="&lt;b&gt;&lt;font style=&quot;font-size: 18px;&quot;&gt;Internet Connection&lt;/font&gt;&lt;/b&gt;" style="outlineConnect=0;dashed=0;verticalLabelPosition=bottom;verticalAlign=top;align=center;html=1;shape=mxgraph.aws3.internet_3;fillColor=#D2D3D3;gradientColor=none;" parent="1" vertex="1">
          <mxGeometry x="467.5" y="1557.5" width="131.03" height="89" as="geometry" />
        </mxCell>
        <mxCell id="R-Ji7351PkL93z1LYaUc-46" value="&lt;b&gt;&lt;font style=&quot;font-size: 17px;&quot;&gt;NEXT.exe&lt;/font&gt;&lt;/b&gt;" style="shape=image;html=1;verticalAlign=top;verticalLabelPosition=bottom;labelBackgroundColor=#ffffff;imageAspect=0;aspect=fixed;image=https://cdn4.iconfinder.com/data/icons/file-extension-3/115/eps_extension_file_name-20-128.png;imageBackground=default;" parent="1" vertex="1">
          <mxGeometry x="424" y="835.0000000000001" width="110" height="110" as="geometry" />
        </mxCell>
        <mxCell id="R-Ji7351PkL93z1LYaUc-58" style="edgeStyle=orthogonalEdgeStyle;rounded=0;orthogonalLoop=1;jettySize=auto;html=1;" parent="1" source="R-Ji7351PkL93z1LYaUc-47" target="R-Ji7351PkL93z1LYaUc-42" edge="1">
          <mxGeometry relative="1" as="geometry" />
        </mxCell>
        <mxCell id="R-Ji7351PkL93z1LYaUc-47" value="&lt;b&gt;&lt;font style=&quot;font-size: 16px;&quot;&gt;Chrome.exe&lt;/font&gt;&lt;/b&gt;" style="dashed=0;outlineConnect=0;html=1;align=center;labelPosition=center;verticalLabelPosition=bottom;verticalAlign=top;shape=mxgraph.weblogos.chrome" parent="1" vertex="1">
          <mxGeometry x="-69.99999999999999" y="1542.3" width="94.64" height="95.4" as="geometry" />
        </mxCell>
        <mxCell id="R-Ji7351PkL93z1LYaUc-50" style="edgeStyle=orthogonalEdgeStyle;rounded=0;orthogonalLoop=1;jettySize=auto;html=1;" parent="1" source="R-Ji7351PkL93z1LYaUc-49" target="R-Ji7351PkL93z1LYaUc-46" edge="1">
          <mxGeometry relative="1" as="geometry" />
        </mxCell>
        <mxCell id="R-Ji7351PkL93z1LYaUc-49" value="&lt;b&gt;&lt;font style=&quot;font-size: 16px;&quot;&gt;Menually Add Run As Adminstrator&lt;/font&gt;&lt;/b&gt;" style="text;html=1;align=center;verticalAlign=middle;resizable=0;points=[];autosize=1;strokeColor=none;fillColor=none;" parent="1" vertex="1">
          <mxGeometry x="370" y="730" width="290" height="30" as="geometry" />
        </mxCell>
        <mxCell id="R-Ji7351PkL93z1LYaUc-52" style="edgeStyle=orthogonalEdgeStyle;rounded=0;orthogonalLoop=1;jettySize=auto;html=1;entryX=0.26;entryY=0.385;entryDx=0;entryDy=0;entryPerimeter=0;" parent="1" source="R-Ji7351PkL93z1LYaUc-46" target="R-Ji7351PkL93z1LYaUc-16" edge="1">
          <mxGeometry relative="1" as="geometry" />
        </mxCell>
        <mxCell id="R-Ji7351PkL93z1LYaUc-53" value="&lt;b&gt;&lt;font style=&quot;font-size: 17px;&quot;&gt;NEXT.exe&lt;/font&gt;&lt;/b&gt;" style="shape=image;html=1;verticalAlign=top;verticalLabelPosition=bottom;labelBackgroundColor=#ffffff;imageAspect=0;aspect=fixed;image=https://cdn4.iconfinder.com/data/icons/file-extension-3/115/eps_extension_file_name-20-128.png;imageBackground=default;" parent="1" vertex="1">
          <mxGeometry x="230" y="1680" width="110" height="110" as="geometry" />
        </mxCell>
        <mxCell id="R-Ji7351PkL93z1LYaUc-55" value="&lt;b&gt;&lt;font style=&quot;font-size: 28px;&quot;&gt;Browser&lt;/font&gt;&lt;/b&gt;" style="strokeWidth=1;shadow=0;dashed=0;align=center;html=1;shape=mxgraph.mockup.containers.browserWindow;rSize=0;strokeColor=#666666;strokeColor2=#008cff;strokeColor3=#c4c4c4;mainText=,;recursiveResize=0;" parent="1" vertex="1">
          <mxGeometry x="60" y="1150" width="390.79" height="270" as="geometry" />
        </mxCell>
        <mxCell id="R-Ji7351PkL93z1LYaUc-56" value="Page 1" style="strokeWidth=1;shadow=0;dashed=0;align=center;html=1;shape=mxgraph.mockup.containers.anchor;fontSize=17;fontColor=#666666;align=left;whiteSpace=wrap;" parent="R-Ji7351PkL93z1LYaUc-55" vertex="1">
          <mxGeometry x="60" y="12" width="110" height="26" as="geometry" />
        </mxCell>
        <mxCell id="R-Ji7351PkL93z1LYaUc-57" value="https://www.draw.io" style="strokeWidth=1;shadow=0;dashed=0;align=center;html=1;shape=mxgraph.mockup.containers.anchor;rSize=0;fontSize=17;fontColor=#666666;align=left;" parent="R-Ji7351PkL93z1LYaUc-55" vertex="1">
          <mxGeometry x="130" y="60" width="250" height="26" as="geometry" />
        </mxCell>
        <mxCell id="R-Ji7351PkL93z1LYaUc-61" style="edgeStyle=orthogonalEdgeStyle;rounded=0;orthogonalLoop=1;jettySize=auto;html=1;entryX=0;entryY=0.7;entryDx=0;entryDy=0;entryPerimeter=0;" parent="1" source="R-Ji7351PkL93z1LYaUc-53" target="R-Ji7351PkL93z1LYaUc-43" edge="1">
          <mxGeometry relative="1" as="geometry" />
        </mxCell>
        <mxCell id="R-Ji7351PkL93z1LYaUc-62" value="&lt;b&gt;&lt;font style=&quot;font-size: 40px;&quot;&gt;Primary&lt;/font&gt;&lt;/b&gt;" style="text;html=1;align=center;verticalAlign=middle;resizable=0;points=[];autosize=1;strokeColor=none;fillColor=none;" parent="1" vertex="1">
          <mxGeometry x="308" y="-170" width="170" height="60" as="geometry" />
        </mxCell>
        <mxCell id="R-Ji7351PkL93z1LYaUc-63" value="&lt;span style=&quot;font-size: 25px;&quot;&gt;&lt;b&gt;V3&lt;br&gt;&lt;/b&gt;&lt;/span&gt;" style="text;html=1;align=center;verticalAlign=middle;resizable=0;points=[];autosize=1;strokeColor=#b85450;fillColor=#f8cecc;" parent="1" vertex="1">
          <mxGeometry x="1351.6" y="2180" width="50" height="40" as="geometry" />
        </mxCell>
        <mxCell id="R-Ji7351PkL93z1LYaUc-64" value="&lt;span style=&quot;font-size: 26px;&quot;&gt;&lt;b&gt;One By One Folder&lt;/b&gt;&lt;/span&gt;" style="text;html=1;align=center;verticalAlign=middle;resizable=0;points=[];autosize=1;strokeColor=none;fillColor=none;" parent="1" vertex="1">
          <mxGeometry x="902.5" y="2310" width="260" height="40" as="geometry" />
        </mxCell>
        <mxCell id="R-Ji7351PkL93z1LYaUc-65" style="edgeStyle=orthogonalEdgeStyle;rounded=0;orthogonalLoop=1;jettySize=auto;html=1;" parent="1" source="R-Ji7351PkL93z1LYaUc-66" target="R-Ji7351PkL93z1LYaUc-70" edge="1">
          <mxGeometry relative="1" as="geometry" />
        </mxCell>
        <mxCell id="R-Ji7351PkL93z1LYaUc-66" value="&lt;b style=&quot;font-size: 15px;&quot;&gt;Encrypted&lt;br&gt;User Data&lt;br&gt;&lt;/b&gt;" style="sketch=0;outlineConnect=0;fontColor=#232F3E;gradientColor=none;strokeColor=#232F3E;fillColor=#ffffff;dashed=0;verticalLabelPosition=bottom;verticalAlign=top;align=center;html=1;fontSize=12;fontStyle=0;aspect=fixed;shape=mxgraph.aws4.resourceIcon;resIcon=mxgraph.aws4.encrypted_data;" parent="1" vertex="1">
          <mxGeometry x="1066.6000000000001" y="2530" width="120" height="120" as="geometry" />
        </mxCell>
        <mxCell id="R-Ji7351PkL93z1LYaUc-67" style="edgeStyle=orthogonalEdgeStyle;rounded=0;orthogonalLoop=1;jettySize=auto;html=1;" parent="1" source="R-Ji7351PkL93z1LYaUc-68" target="R-Ji7351PkL93z1LYaUc-79" edge="1">
          <mxGeometry relative="1" as="geometry" />
        </mxCell>
        <mxCell id="R-Ji7351PkL93z1LYaUc-68" value="&lt;br&gt;&lt;b style=&quot;border-color: var(--border-color); color: rgb(0, 0, 0); font-family: Helvetica; font-size: 12px; font-style: normal; font-variant-ligatures: normal; font-variant-caps: normal; letter-spacing: normal; orphans: 2; text-align: center; text-indent: 0px; text-transform: none; widows: 2; word-spacing: 0px; -webkit-text-stroke-width: 0px; background-color: rgb(251, 251, 251); text-decoration-thickness: initial; text-decoration-style: initial; text-decoration-color: initial;&quot;&gt;&lt;font style=&quot;border-color: var(--border-color); font-size: 16px;&quot;&gt;Steganography&lt;/font&gt;&lt;/b&gt;" style="sketch=0;aspect=fixed;pointerEvents=1;shadow=0;dashed=0;html=1;strokeColor=none;labelPosition=center;verticalLabelPosition=bottom;verticalAlign=top;align=center;fillColor=#00188D;shape=mxgraph.azure.code_file" parent="1" vertex="1">
          <mxGeometry x="1605.1" y="2412.3" width="75.2" height="80" as="geometry" />
        </mxCell>
        <mxCell id="R-Ji7351PkL93z1LYaUc-93" style="edgeStyle=orthogonalEdgeStyle;rounded=0;orthogonalLoop=1;jettySize=auto;html=1;" parent="1" source="R-Ji7351PkL93z1LYaUc-70" target="R-Ji7351PkL93z1LYaUc-92" edge="1">
          <mxGeometry relative="1" as="geometry" />
        </mxCell>
        <mxCell id="R-Ji7351PkL93z1LYaUc-70" value="&lt;span style=&quot;font-size: 18px;&quot;&gt;&lt;b&gt;Key&lt;/b&gt;&lt;/span&gt;" style="sketch=0;outlineConnect=0;fontColor=#232F3E;gradientColor=none;fillColor=#DD344C;strokeColor=none;dashed=0;verticalLabelPosition=bottom;verticalAlign=top;align=center;html=1;fontSize=12;fontStyle=0;aspect=fixed;pointerEvents=1;shape=mxgraph.aws4.key_management_service_external_key_store;" parent="1" vertex="1">
          <mxGeometry x="1236.6" y="2480" width="91" height="91" as="geometry" />
        </mxCell>
        <mxCell id="R-Ji7351PkL93z1LYaUc-71" style="edgeStyle=orthogonalEdgeStyle;rounded=0;orthogonalLoop=1;jettySize=auto;html=1;" parent="1" source="R-Ji7351PkL93z1LYaUc-72" target="R-Ji7351PkL93z1LYaUc-73" edge="1">
          <mxGeometry relative="1" as="geometry" />
        </mxCell>
        <mxCell id="R-Ji7351PkL93z1LYaUc-72" value="&lt;b&gt;&lt;font style=&quot;font-size: 14px;&quot;&gt;Google Drive API&lt;/font&gt;&lt;/b&gt;" style="image;sketch=0;aspect=fixed;html=1;points=[];align=center;fontSize=12;image=img/lib/mscae/API_Management.svg;" parent="1" vertex="1">
          <mxGeometry x="2010" y="2440" width="89.29" height="75" as="geometry" />
        </mxCell>
        <mxCell id="R-Ji7351PkL93z1LYaUc-73" value="&lt;b&gt;&lt;font style=&quot;font-size: 15px;&quot;&gt;Google&lt;/font&gt;&lt;font size=&quot;1&quot; style=&quot;&quot;&gt; &lt;/font&gt;&lt;font style=&quot;font-size: 15px;&quot;&gt;Drive&lt;/font&gt;&lt;/b&gt;" style="dashed=0;outlineConnect=0;html=1;align=center;labelPosition=center;verticalLabelPosition=bottom;verticalAlign=top;shape=mxgraph.weblogos.google_drive" parent="1" vertex="1">
          <mxGeometry x="2140" y="2560" width="89.3" height="78" as="geometry" />
        </mxCell>
        <mxCell id="R-Ji7351PkL93z1LYaUc-74" style="edgeStyle=orthogonalEdgeStyle;rounded=0;orthogonalLoop=1;jettySize=auto;html=1;" parent="1" source="R-Ji7351PkL93z1LYaUc-75" target="R-Ji7351PkL93z1LYaUc-66" edge="1">
          <mxGeometry relative="1" as="geometry" />
        </mxCell>
        <mxCell id="R-Ji7351PkL93z1LYaUc-75" value="" style="sketch=0;pointerEvents=1;shadow=0;dashed=0;html=1;strokeColor=#666666;fillColor=#F5DC36;labelPosition=center;verticalLabelPosition=bottom;verticalAlign=top;outlineConnect=0;align=center;shape=mxgraph.office.concepts.folder_open;fontColor=#333333;" parent="1" vertex="1">
          <mxGeometry x="986.6000000000001" y="2369.5" width="91.81" height="70.5" as="geometry" />
        </mxCell>
        <mxCell id="R-Ji7351PkL93z1LYaUc-76" style="edgeStyle=orthogonalEdgeStyle;rounded=0;orthogonalLoop=1;jettySize=auto;html=1;" parent="1" source="R-Ji7351PkL93z1LYaUc-77" target="R-Ji7351PkL93z1LYaUc-75" edge="1">
          <mxGeometry relative="1" as="geometry" />
        </mxCell>
        <mxCell id="R-Ji7351PkL93z1LYaUc-77" value="&lt;b&gt;&lt;font style=&quot;font-size: 23px;&quot;&gt;Drive&lt;/font&gt;&lt;/b&gt;" style="sketch=0;pointerEvents=1;shadow=0;dashed=0;html=1;strokeColor=none;fillColor=#505050;labelPosition=center;verticalLabelPosition=bottom;verticalAlign=top;outlineConnect=0;align=center;shape=mxgraph.office.devices.hard_disk;" parent="1" vertex="1">
          <mxGeometry x="722.5" y="2420" width="77.04" height="104" as="geometry" />
        </mxCell>
        <mxCell id="R-Ji7351PkL93z1LYaUc-78" style="edgeStyle=orthogonalEdgeStyle;rounded=0;orthogonalLoop=1;jettySize=auto;html=1;" parent="1" source="R-Ji7351PkL93z1LYaUc-79" target="R-Ji7351PkL93z1LYaUc-72" edge="1">
          <mxGeometry relative="1" as="geometry" />
        </mxCell>
        <mxCell id="R-Ji7351PkL93z1LYaUc-79" value="&lt;b&gt;&lt;font style=&quot;font-size: 19px;&quot;&gt;Image FIle&lt;/font&gt;&lt;/b&gt;" style="sketch=0;outlineConnect=0;fontColor=#232F3E;gradientColor=none;fillColor=#ED7100;strokeColor=none;dashed=0;verticalLabelPosition=bottom;verticalAlign=top;align=center;html=1;fontSize=12;fontStyle=0;aspect=fixed;pointerEvents=1;shape=mxgraph.aws4.container_registry_image;" parent="1" vertex="1">
          <mxGeometry x="1810" y="2464.5" width="85.5" height="85.5" as="geometry" />
        </mxCell>
        <mxCell id="R-Ji7351PkL93z1LYaUc-80" style="edgeStyle=orthogonalEdgeStyle;rounded=0;orthogonalLoop=1;jettySize=auto;html=1;" parent="1" source="R-Ji7351PkL93z1LYaUc-82" target="R-Ji7351PkL93z1LYaUc-87" edge="1">
          <mxGeometry relative="1" as="geometry" />
        </mxCell>
        <mxCell id="R-Ji7351PkL93z1LYaUc-81" style="edgeStyle=orthogonalEdgeStyle;rounded=0;orthogonalLoop=1;jettySize=auto;html=1;" parent="1" source="R-Ji7351PkL93z1LYaUc-82" target="R-Ji7351PkL93z1LYaUc-88" edge="1">
          <mxGeometry relative="1" as="geometry" />
        </mxCell>
        <mxCell id="R-Ji7351PkL93z1LYaUc-82" value="&lt;b&gt;&lt;font style=&quot;font-size: 16px;&quot;&gt;Automatically Ask For Run As Adminstrator&lt;br&gt;&lt;br&gt;&lt;/font&gt;&lt;/b&gt;" style="text;html=1;align=center;verticalAlign=middle;resizable=0;points=[];autosize=1;strokeColor=none;fillColor=none;" parent="1" vertex="1">
          <mxGeometry x="157.5" y="2369.5" width="360" height="50" as="geometry" />
        </mxCell>
        <mxCell id="R-Ji7351PkL93z1LYaUc-83" style="edgeStyle=orthogonalEdgeStyle;rounded=0;orthogonalLoop=1;jettySize=auto;html=1;" parent="1" source="R-Ji7351PkL93z1LYaUc-84" target="R-Ji7351PkL93z1LYaUc-77" edge="1">
          <mxGeometry relative="1" as="geometry" />
        </mxCell>
        <mxCell id="R-Ji7351PkL93z1LYaUc-84" value="&lt;b&gt;&lt;font style=&quot;font-size: 18px;&quot;&gt;Internet Connection&lt;/font&gt;&lt;/b&gt;" style="outlineConnect=0;dashed=0;verticalLabelPosition=bottom;verticalAlign=top;align=center;html=1;shape=mxgraph.aws3.internet_3;fillColor=#D2D3D3;gradientColor=none;" parent="1" vertex="1">
          <mxGeometry x="477.5" y="2427.5" width="131.03" height="89" as="geometry" />
        </mxCell>
        <mxCell id="R-Ji7351PkL93z1LYaUc-85" style="edgeStyle=orthogonalEdgeStyle;rounded=0;orthogonalLoop=1;jettySize=auto;html=1;" parent="1" source="R-Ji7351PkL93z1LYaUc-86" target="R-Ji7351PkL93z1LYaUc-82" edge="1">
          <mxGeometry relative="1" as="geometry" />
        </mxCell>
        <mxCell id="R-Ji7351PkL93z1LYaUc-86" value="&lt;b&gt;&lt;font style=&quot;font-size: 16px;&quot;&gt;Chrome.exe&lt;/font&gt;&lt;/b&gt;" style="dashed=0;outlineConnect=0;html=1;align=center;labelPosition=center;verticalLabelPosition=bottom;verticalAlign=top;shape=mxgraph.weblogos.chrome" parent="1" vertex="1">
          <mxGeometry x="-60" y="2412.3" width="94.64" height="95.4" as="geometry" />
        </mxCell>
        <mxCell id="R-Ji7351PkL93z1LYaUc-87" value="&lt;b&gt;&lt;font style=&quot;font-size: 17px;&quot;&gt;NEXT.exe&lt;/font&gt;&lt;/b&gt;" style="shape=image;html=1;verticalAlign=top;verticalLabelPosition=bottom;labelBackgroundColor=#ffffff;imageAspect=0;aspect=fixed;image=https://cdn4.iconfinder.com/data/icons/file-extension-3/115/eps_extension_file_name-20-128.png;imageBackground=default;" parent="1" vertex="1">
          <mxGeometry x="240" y="2550" width="110" height="110" as="geometry" />
        </mxCell>
        <mxCell id="R-Ji7351PkL93z1LYaUc-88" value="&lt;b&gt;&lt;font style=&quot;font-size: 28px;&quot;&gt;Browser&lt;/font&gt;&lt;/b&gt;" style="strokeWidth=1;shadow=0;dashed=0;align=center;html=1;shape=mxgraph.mockup.containers.browserWindow;rSize=0;strokeColor=#666666;strokeColor2=#008cff;strokeColor3=#c4c4c4;mainText=,;recursiveResize=0;" parent="1" vertex="1">
          <mxGeometry x="70" y="2020" width="390.79" height="270" as="geometry" />
        </mxCell>
        <mxCell id="R-Ji7351PkL93z1LYaUc-89" value="Page 1" style="strokeWidth=1;shadow=0;dashed=0;align=center;html=1;shape=mxgraph.mockup.containers.anchor;fontSize=17;fontColor=#666666;align=left;whiteSpace=wrap;" parent="R-Ji7351PkL93z1LYaUc-88" vertex="1">
          <mxGeometry x="60" y="12" width="110" height="26" as="geometry" />
        </mxCell>
        <mxCell id="R-Ji7351PkL93z1LYaUc-90" value="https://www.draw.io" style="strokeWidth=1;shadow=0;dashed=0;align=center;html=1;shape=mxgraph.mockup.containers.anchor;rSize=0;fontSize=17;fontColor=#666666;align=left;" parent="R-Ji7351PkL93z1LYaUc-88" vertex="1">
          <mxGeometry x="130" y="60" width="250" height="26" as="geometry" />
        </mxCell>
        <mxCell id="R-Ji7351PkL93z1LYaUc-91" style="edgeStyle=orthogonalEdgeStyle;rounded=0;orthogonalLoop=1;jettySize=auto;html=1;entryX=0;entryY=0.7;entryDx=0;entryDy=0;entryPerimeter=0;" parent="1" source="R-Ji7351PkL93z1LYaUc-87" target="R-Ji7351PkL93z1LYaUc-84" edge="1">
          <mxGeometry relative="1" as="geometry" />
        </mxCell>
        <mxCell id="R-Ji7351PkL93z1LYaUc-94" style="edgeStyle=orthogonalEdgeStyle;rounded=0;orthogonalLoop=1;jettySize=auto;html=1;" parent="1" source="R-Ji7351PkL93z1LYaUc-92" target="R-Ji7351PkL93z1LYaUc-75" edge="1">
          <mxGeometry relative="1" as="geometry" />
        </mxCell>
        <mxCell id="R-Ji7351PkL93z1LYaUc-92" value="&lt;b style=&quot;border-color: var(--border-color); color: rgb(35, 47, 62); background-color: rgb(251, 251, 251); font-size: 15px;&quot;&gt;All Encrypted&lt;br style=&quot;border-color: var(--border-color);&quot;&gt;Data Keys&lt;br&gt;&lt;/b&gt;" style="shape=image;html=1;verticalAlign=top;verticalLabelPosition=bottom;labelBackgroundColor=#ffffff;imageAspect=0;aspect=fixed;image=https://cdn0.iconfinder.com/data/icons/glyphpack/170/file-txt-128.png" parent="1" vertex="1">
          <mxGeometry x="1391.6" y="2350" width="110" height="110" as="geometry" />
        </mxCell>
        <mxCell id="R-Ji7351PkL93z1LYaUc-95" style="edgeStyle=orthogonalEdgeStyle;rounded=0;orthogonalLoop=1;jettySize=auto;html=1;entryX=0.091;entryY=0.684;entryDx=0;entryDy=0;entryPerimeter=0;" parent="1" source="R-Ji7351PkL93z1LYaUc-92" target="R-Ji7351PkL93z1LYaUc-68" edge="1">
          <mxGeometry relative="1" as="geometry" />
        </mxCell>
        <mxCell id="9NGWR9EVHDFngZSXLj8Q-1" value="" style="image;aspect=fixed;html=1;points=[];align=center;fontSize=12;image=img/lib/azure2/general/Image.svg;" vertex="1" parent="1">
          <mxGeometry x="580" y="1250" width="64" height="44" as="geometry" />
        </mxCell>
      </root>
    </mxGraphModel>
  </diagram>
  <diagram id="2kVqaHBGbe1iBzujRGaT" name="Page-2">
    <mxGraphModel dx="969" dy="484" grid="1" gridSize="10" guides="1" tooltips="1" connect="1" arrows="1" fold="1" page="1" pageScale="1" pageWidth="850" pageHeight="1100" math="0" shadow="0">
      <root>
        <mxCell id="0" />
        <mxCell id="1" parent="0" />
      </root>
    </mxGraphModel>
  </diagram>
</mxfile>
